<svg xmlns="http://www.w3.org/2000/svg" viewBox="0 0 1200 1200"><g id="Background"><path d="M134,0h935a133.07,133.07,0,0,1,133,133v935a133.07,133.07,0,0,1-133,133H134A133.07,133.07,0,0,1,1,1068V133A133.07,133.07,0,0,1,134,0Z" style="fill:#ff304f;fill-rule:evenodd"/></g><g id="Text"><g style="isolation:isolate"><g style="isolation:isolate"><path d="M346,894.1c0-36.6,21.3-57.9,71.1-57.9a226.23,226.23,0,0,1,54.3,6.6l-4.2,32.7c-16.2-3-35.1-5.1-48.9-5.1-26.1,0-34.5,9-34.5,30.3v76.8c0,21.3,8.4,30.3,34.5,30.3,13.8,0,32.7-2.1,48.9-5.1l4.2,32.7a226.23,226.23,0,0,1-54.3,6.6c-49.8,0-71.1-21.3-71.1-57.9Z" style="fill:#fff"/><path d="M627.1,1039l-45.9-66h-36v66H507.4V839.2h81.9c46.5,0,63.6,18.9,63.6,54v26.1c0,24-9,40.8-30,48.3l49.5,71.4ZM587.8,872.5H545.2v67.8h42.6c20.7,0,27.3-7.5,27.3-24.3V896.2C615.1,879.4,607.9,872.5,587.8,872.5Z" style="fill:#fff"/><path d="M844.6,980.5c0,33.3-19.2,61.5-75.6,61.5s-75.6-28.2-75.6-61.5V897.7c0-33.3,19.2-61.5,75.6-61.5s75.6,28.2,75.6,61.5Zm-113.4-2.1c0,18.9,9.6,30.3,37.8,30.3s37.8-11.4,37.8-30.3V899.8c0-18.9-9.6-30.3-37.8-30.3s-37.8,11.4-37.8,30.3Z" style="fill:#fff"/><path d="M922,887.5V1039H885.09V839.2H935.5L1011.4,991V839.2h36.9V1039H997.9Z" style="fill:#fff"/></g></g></g></svg>